<svg xmlns="http://www.w3.org/2000/svg" width="600" height="600" viewBox="0 0 600 600">
  <defs>
    <!-- Background gradient -->
    <linearGradient id="bg" x1="0" y1="0" x2="1" y2="1">
      <stop offset="0%" stop-color="#fefefe"/>
      <stop offset="50%" stop-color="#f8fafc"/>
      <stop offset="100%" stop-color="#f1f5f9"/>
    </linearGradient>

    <!-- Flame gradients -->
    <radialGradient id="flame-outer" cx="0.5" cy="0.7" r="0.6" fx="0.5" fy="0.85">
      <stop offset="0%" stop-color="#fbbf24"/>
      <stop offset="35%" stop-color="#f97316"/>
      <stop offset="70%" stop-color="#ef4444"/>
      <stop offset="100%" stop-color="#dc2626"/>
    </radialGradient>
    <radialGradient id="flame-inner" cx="0.5" cy="0.65" r="0.45">
      <stop offset="0%" stop-color="#fffbeb"/>
      <stop offset="40%" stop-color="#fde68a"/>
      <stop offset="100%" stop-color="#fbbf24"/>
    </radialGradient>
    <radialGradient id="flame-core" cx="0.5" cy="0.55" r="0.3">
      <stop offset="0%" stop-color="#ffffff"/>
      <stop offset="100%" stop-color="#fef3c7" stop-opacity="0.7"/>
    </radialGradient>

    <!-- Can metallic gradient -->
    <linearGradient id="can-body" x1="0" y1="0" x2="1" y2="1">
      <stop offset="0%" stop-color="#64748b"/>
      <stop offset="25%" stop-color="#475569"/>
      <stop offset="50%" stop-color="#334155"/>
      <stop offset="75%" stop-color="#475569"/>
      <stop offset="100%" stop-color="#64748b"/>
    </linearGradient>
    <linearGradient id="can-lid" x1="0" y1="0" x2="0" y2="1">
      <stop offset="0%" stop-color="#94a3b8"/>
      <stop offset="50%" stop-color="#64748b"/>
      <stop offset="100%" stop-color="#94a3b8"/>
    </linearGradient>
    <linearGradient id="can-shine" x1="0" y1="0" x2="1" y2="0">
      <stop offset="0%" stop-color="rgba(255,255,255,0)" />
      <stop offset="30%" stop-color="rgba(255,255,255,0.15)" />
      <stop offset="50%" stop-color="rgba(255,255,255,0.25)" />
      <stop offset="70%" stop-color="rgba(255,255,255,0.15)" />
      <stop offset="100%" stop-color="rgba(255,255,255,0)" />
    </linearGradient>

    <!-- Filters -->
    <filter id="flame-glow" x="-50%" y="-50%" width="200%" height="200%">
      <feGaussianBlur in="SourceGraphic" stdDeviation="10" result="blur"/>
      <feColorMatrix in="blur" type="matrix" values="1 0 0 0 0  0.5 0.2 0 0 0  0 0 0 0 0  0 0 0 0.5 0" result="colored"/>
      <feMerge>
        <feMergeNode in="colored"/>
        <feMergeNode in="SourceGraphic"/>
      </feMerge>
    </filter>
    <filter id="can-shadow" x="-20%" y="-10%" width="140%" height="130%">
      <feDropShadow dx="0" dy="6" stdDeviation="8" flood-color="rgba(15,23,42,0.25)"/>
    </filter>
    <filter id="text-shadow">
      <feDropShadow dx="0" dy="2" stdDeviation="2" flood-color="rgba(15,23,42,0.15)"/>
    </filter>
    <filter id="lid-shadow">
      <feDropShadow dx="0" dy="2" stdDeviation="3" flood-color="rgba(15,23,42,0.2)"/>
    </filter>

    <!-- Ambient light ring -->
    <radialGradient id="ambient" cx="0.5" cy="0.42" r="0.35">
      <stop offset="0%" stop-color="#fbbf24" stop-opacity="0.12"/>
      <stop offset="100%" stop-color="#fbbf24" stop-opacity="0"/>
    </radialGradient>
  </defs>

  <!-- Background -->
  <rect width="600" height="600" rx="120" ry="120" fill="url(#bg)"/>

  <!-- Ambient glow behind flame -->
  <ellipse cx="300" cy="250" rx="160" ry="140" fill="url(#ambient)"/>

  <!-- Trash can -->
  <g transform="translate(300, 325)" filter="url(#can-shadow)">
    <!-- Can body with metallic look -->
    <path d="M-75,22 L-63,140 Q-60,158 -40,158 L40,158 Q60,158 63,140 L75,22 Z" fill="url(#can-body)"/>
    <!-- Shine overlay -->
    <path d="M-75,22 L-63,140 Q-60,158 -40,158 L40,158 Q60,158 63,140 L75,22 Z" fill="url(#can-shine)"/>
    <!-- Horizontal ridges -->
    <line x1="-70" y1="55" x2="70" y2="55" stroke="rgba(148,163,184,0.3)" stroke-width="1.5"/>
    <line x1="-67" y1="90" x2="67" y2="90" stroke="rgba(148,163,184,0.3)" stroke-width="1.5"/>
    <line x1="-65" y1="125" x2="65" y2="125" stroke="rgba(148,163,184,0.3)" stroke-width="1.5"/>
    <!-- Can rim highlight -->
    <path d="M-75,22 L75,22" stroke="rgba(203,213,225,0.6)" stroke-width="2"/>
  </g>

  <!-- Can lid -->
  <g transform="translate(300, 325)" filter="url(#lid-shadow)">
    <rect x="-85" y="0" width="170" height="24" rx="8" fill="url(#can-lid)" stroke="#475569" stroke-width="1.5"/>
    <!-- Lid shine -->
    <rect x="-85" y="0" width="170" height="12" rx="8" fill="rgba(255,255,255,0.12)"/>
    <!-- Handle -->
    <rect x="-22" y="-14" width="44" height="16" rx="6" fill="#94a3b8" stroke="#64748b" stroke-width="1.5"/>
    <rect x="-22" y="-14" width="44" height="8" rx="6" fill="rgba(255,255,255,0.15)"/>
  </g>

  <!-- Flame group with glow -->
  <g transform="translate(300, 215)" filter="url(#flame-glow)">
    <!-- Outer flame -->
    <path d="M0,-135 C5,-115 -20,-95 -35,-70 C-50,-45 -58,-15 -55,15 C-52,40 -40,58 -22,68 C-10,74 -3,76 0,77 C3,76 10,74 22,68 C40,58 52,40 55,15 C58,-15 50,-45 35,-70 C20,-95 -5,-115 0,-135 Z" fill="url(#flame-outer)"/>
    <!-- Mid flame -->
    <path d="M0,-90 C3,-75 -12,-60 -22,-42 C-32,-24 -35,-5 -32,12 C-29,28 -20,40 -10,46 C-4,49 0,50 0,50 C0,50 4,49 10,46 C20,40 29,28 32,12 C35,-5 32,-24 22,-42 C12,-60 -3,-75 0,-90 Z" fill="url(#flame-inner)"/>
    <!-- Inner core -->
    <path d="M0,-50 C2,-38 -6,-28 -12,-18 C-18,-8 -18,4 -15,14 C-12,22 -6,28 0,30 C6,28 12,22 15,14 C18,4 18,-8 12,-18 C6,-28 -2,-38 0,-50 Z" fill="url(#flame-core)"/>
    <!-- Sparkle highlights -->
    <circle cx="-20" cy="-30" r="3" fill="white" opacity="0.5"/>
    <circle cx="15" cy="-55" r="2" fill="white" opacity="0.4"/>
    <circle cx="-8" cy="-75" r="2.5" fill="white" opacity="0.35"/>
  </g>

  <!-- Angry face on flame -->
  <g transform="translate(300, 200)">
    <!-- Eyebrows -->
    <path d="M-24,-22 L-12,-30" stroke="#7c2d12" stroke-width="3.5" stroke-linecap="round" opacity="0.7"/>
    <path d="M24,-22 L12,-30" stroke="#7c2d12" stroke-width="3.5" stroke-linecap="round" opacity="0.7"/>
    <!-- Eyes -->
    <ellipse cx="-16" cy="-14" rx="5" ry="6" fill="#7c2d12" opacity="0.75"/>
    <ellipse cx="16" cy="-14" rx="5" ry="6" fill="#7c2d12" opacity="0.75"/>
    <!-- Eye highlights -->
    <circle cx="-14" cy="-16" r="2" fill="white" opacity="0.5"/>
    <circle cx="18" cy="-16" r="2" fill="white" opacity="0.5"/>
    <!-- Mouth - angry grin -->
    <path d="M-14,6 Q-8,0 0,2 Q8,0 14,6" stroke="#7c2d12" stroke-width="3" fill="none" opacity="0.65" stroke-linecap="round"/>
    <!-- Nose hint -->
    <path d="M-2,-4 Q0,-2 2,-4" stroke="#92400e" stroke-width="1.5" fill="none" opacity="0.4"/>
  </g>

  <!-- Small embers / sparks floating -->
  <g opacity="0.6">
    <circle cx="250" cy="130" r="3" fill="#f97316"/>
    <circle cx="345" cy="110" r="2.5" fill="#fbbf24"/>
    <circle cx="270" cy="100" r="2" fill="#ef4444"/>
    <circle cx="330" cy="85" r="1.8" fill="#fbbf24"/>
    <circle cx="310" cy="105" r="2.2" fill="#f97316"/>
  </g>

  <!-- Brand text -->
  <g filter="url(#text-shadow)">
    <text x="300" y="535" text-anchor="middle" font-family="'Noto Sans KR', 'Apple SD Gothic Neo', 'Malgun Gothic', sans-serif" font-size="56" font-weight="800" fill="#1e293b" letter-spacing="6">욕바지</text>
  </g>
  <text x="300" y="568" text-anchor="middle" font-family="'Inter', 'Helvetica Neue', sans-serif" font-size="16" font-weight="500" fill="#94a3b8" letter-spacing="8">YOKBAJI</text>
</svg>