<svg xmlns="http://www.w3.org/2000/svg" width="600" height="600" viewBox="0 0 600 600">
  <defs>
    <!-- Dark background -->
    <linearGradient id="bg-d" x1="0" y1="0" x2="1" y2="1">
      <stop offset="0%" stop-color="#1e293b"/>
      <stop offset="50%" stop-color="#0f172a"/>
      <stop offset="100%" stop-color="#020617"/>
    </linearGradient>

    <!-- Flame gradients -->
    <radialGradient id="flame-outer-d" cx="0.5" cy="0.7" r="0.6" fx="0.5" fy="0.85">
      <stop offset="0%" stop-color="#fbbf24"/>
      <stop offset="30%" stop-color="#f97316"/>
      <stop offset="65%" stop-color="#ef4444"/>
      <stop offset="100%" stop-color="#b91c1c"/>
    </radialGradient>
    <radialGradient id="flame-inner-d" cx="0.5" cy="0.65" r="0.45">
      <stop offset="0%" stop-color="#fffbeb"/>
      <stop offset="35%" stop-color="#fde68a"/>
      <stop offset="100%" stop-color="#f59e0b"/>
    </radialGradient>
    <radialGradient id="flame-core-d" cx="0.5" cy="0.55" r="0.3">
      <stop offset="0%" stop-color="#ffffff"/>
      <stop offset="100%" stop-color="#fef3c7" stop-opacity="0.8"/>
    </radialGradient>

    <!-- Can dark metallic -->
    <linearGradient id="can-body-d" x1="0" y1="0" x2="1" y2="1">
      <stop offset="0%" stop-color="#475569"/>
      <stop offset="25%" stop-color="#334155"/>
      <stop offset="50%" stop-color="#1e293b"/>
      <stop offset="75%" stop-color="#334155"/>
      <stop offset="100%" stop-color="#475569"/>
    </linearGradient>
    <linearGradient id="can-lid-d" x1="0" y1="0" x2="0" y2="1">
      <stop offset="0%" stop-color="#64748b"/>
      <stop offset="50%" stop-color="#475569"/>
      <stop offset="100%" stop-color="#64748b"/>
    </linearGradient>
    <linearGradient id="can-shine-d" x1="0" y1="0" x2="1" y2="0">
      <stop offset="0%" stop-color="rgba(255,255,255,0)" />
      <stop offset="30%" stop-color="rgba(255,255,255,0.06)" />
      <stop offset="50%" stop-color="rgba(255,255,255,0.12)" />
      <stop offset="70%" stop-color="rgba(255,255,255,0.06)" />
      <stop offset="100%" stop-color="rgba(255,255,255,0)" />
    </linearGradient>

    <!-- Filters -->
    <filter id="flame-glow-d" x="-60%" y="-60%" width="220%" height="220%">
      <feGaussianBlur in="SourceGraphic" stdDeviation="16" result="blur"/>
      <feColorMatrix in="blur" type="matrix" values="1 0.3 0 0 0  0.4 0.15 0 0 0  0 0 0 0 0  0 0 0 0.6 0" result="colored"/>
      <feMerge>
        <feMergeNode in="colored"/>
        <feMergeNode in="SourceGraphic"/>
      </feMerge>
    </filter>
    <filter id="can-shadow-d" x="-20%" y="-10%" width="140%" height="130%">
      <feDropShadow dx="0" dy="6" stdDeviation="10" flood-color="rgba(0,0,0,0.5)"/>
    </filter>
    <filter id="text-glow-d">
      <feDropShadow dx="0" dy="0" stdDeviation="4" flood-color="rgba(251,191,36,0.25)"/>
    </filter>
    <filter id="lid-shadow-d">
      <feDropShadow dx="0" dy="2" stdDeviation="4" flood-color="rgba(0,0,0,0.4)"/>
    </filter>
    <filter id="ember-glow">
      <feGaussianBlur stdDeviation="3" result="blur"/>
      <feMerge>
        <feMergeNode in="blur"/>
        <feMergeNode in="SourceGraphic"/>
      </feMerge>
    </filter>

    <!-- Ambient glow -->
    <radialGradient id="ambient-d" cx="0.5" cy="0.42" r="0.38">
      <stop offset="0%" stop-color="#f97316" stop-opacity="0.18"/>
      <stop offset="60%" stop-color="#ef4444" stop-opacity="0.06"/>
      <stop offset="100%" stop-color="#ef4444" stop-opacity="0"/>
    </radialGradient>

    <!-- Rim light on border -->
    <linearGradient id="rim" x1="0" y1="0" x2="1" y2="1">
      <stop offset="0%" stop-color="rgba(251,191,36,0.15)"/>
      <stop offset="50%" stop-color="rgba(148,163,184,0.08)"/>
      <stop offset="100%" stop-color="rgba(251,191,36,0.15)"/>
    </linearGradient>
  </defs>

  <!-- Background -->
  <rect width="600" height="600" rx="120" ry="120" fill="url(#bg-d)"/>
  <!-- Subtle border -->
  <rect x="1.5" y="1.5" width="597" height="597" rx="119" ry="119" fill="none" stroke="url(#rim)" stroke-width="1.5"/>

  <!-- Ambient glow -->
  <ellipse cx="300" cy="250" rx="180" ry="160" fill="url(#ambient-d)"/>

  <!-- Floor reflection -->
  <ellipse cx="300" cy="490" rx="100" ry="12" fill="rgba(251,191,36,0.06)"/>

  <!-- Trash can -->
  <g transform="translate(300, 325)" filter="url(#can-shadow-d)">
    <path d="M-75,22 L-63,140 Q-60,158 -40,158 L40,158 Q60,158 63,140 L75,22 Z" fill="url(#can-body-d)" stroke="rgba(148,163,184,0.15)" stroke-width="1"/>
    <path d="M-75,22 L-63,140 Q-60,158 -40,158 L40,158 Q60,158 63,140 L75,22 Z" fill="url(#can-shine-d)"/>
    <!-- Ridges -->
    <line x1="-70" y1="55" x2="70" y2="55" stroke="rgba(148,163,184,0.15)" stroke-width="1.5"/>
    <line x1="-67" y1="90" x2="67" y2="90" stroke="rgba(148,163,184,0.15)" stroke-width="1.5"/>
    <line x1="-65" y1="125" x2="65" y2="125" stroke="rgba(148,163,184,0.15)" stroke-width="1.5"/>
    <!-- Fire reflection on can -->
    <path d="M-75,22 L-63,60 L63,60 L75,22 Z" fill="rgba(251,191,36,0.05)"/>
  </g>

  <!-- Can lid -->
  <g transform="translate(300, 325)" filter="url(#lid-shadow-d)">
    <rect x="-85" y="0" width="170" height="24" rx="8" fill="url(#can-lid-d)" stroke="rgba(148,163,184,0.2)" stroke-width="1"/>
    <rect x="-85" y="0" width="170" height="12" rx="8" fill="rgba(255,255,255,0.06)"/>
    <rect x="-22" y="-14" width="44" height="16" rx="6" fill="#64748b" stroke="rgba(148,163,184,0.25)" stroke-width="1"/>
    <rect x="-22" y="-14" width="44" height="8" rx="6" fill="rgba(255,255,255,0.08)"/>
  </g>

  <!-- Flame -->
  <g transform="translate(300, 215)" filter="url(#flame-glow-d)">
    <path d="M0,-135 C5,-115 -20,-95 -35,-70 C-50,-45 -58,-15 -55,15 C-52,40 -40,58 -22,68 C-10,74 -3,76 0,77 C3,76 10,74 22,68 C40,58 52,40 55,15 C58,-15 50,-45 35,-70 C20,-95 -5,-115 0,-135 Z" fill="url(#flame-outer-d)"/>
    <path d="M0,-90 C3,-75 -12,-60 -22,-42 C-32,-24 -35,-5 -32,12 C-29,28 -20,40 -10,46 C-4,49 0,50 0,50 C0,50 4,49 10,46 C20,40 29,28 32,12 C35,-5 32,-24 22,-42 C12,-60 -3,-75 0,-90 Z" fill="url(#flame-inner-d)"/>
    <path d="M0,-50 C2,-38 -6,-28 -12,-18 C-18,-8 -18,4 -15,14 C-12,22 -6,28 0,30 C6,28 12,22 15,14 C18,4 18,-8 12,-18 C6,-28 -2,-38 0,-50 Z" fill="url(#flame-core-d)"/>
    <!-- Sparkles -->
    <circle cx="-20" cy="-30" r="3" fill="white" opacity="0.6"/>
    <circle cx="15" cy="-55" r="2" fill="white" opacity="0.5"/>
    <circle cx="-8" cy="-75" r="2.5" fill="white" opacity="0.4"/>
  </g>

  <!-- Angry face -->
  <g transform="translate(300, 200)">
    <path d="M-24,-22 L-12,-30" stroke="#7c2d12" stroke-width="3.5" stroke-linecap="round" opacity="0.75"/>
    <path d="M24,-22 L12,-30" stroke="#7c2d12" stroke-width="3.5" stroke-linecap="round" opacity="0.75"/>
    <ellipse cx="-16" cy="-14" rx="5" ry="6" fill="#7c2d12" opacity="0.8"/>
    <ellipse cx="16" cy="-14" rx="5" ry="6" fill="#7c2d12" opacity="0.8"/>
    <circle cx="-14" cy="-16" r="2" fill="white" opacity="0.55"/>
    <circle cx="18" cy="-16" r="2" fill="white" opacity="0.55"/>
    <path d="M-14,6 Q-8,0 0,2 Q8,0 14,6" stroke="#7c2d12" stroke-width="3" fill="none" opacity="0.7" stroke-linecap="round"/>
    <path d="M-2,-4 Q0,-2 2,-4" stroke="#92400e" stroke-width="1.5" fill="none" opacity="0.45"/>
  </g>

  <!-- Floating embers with glow -->
  <g filter="url(#ember-glow)" opacity="0.75">
    <circle cx="245" cy="125" r="3.5" fill="#f97316"/>
    <circle cx="350" cy="105" r="3" fill="#fbbf24"/>
    <circle cx="265" cy="95" r="2.5" fill="#ef4444"/>
    <circle cx="335" cy="80" r="2" fill="#fde68a"/>
    <circle cx="315" cy="100" r="2.8" fill="#f97316"/>
    <circle cx="228" cy="150" r="2" fill="#fbbf24"/>
    <circle cx="370" cy="135" r="2.2" fill="#ef4444"/>
  </g>

  <!-- Brand text with warm glow -->
  <g filter="url(#text-glow-d)">
    <text x="300" y="535" text-anchor="middle" font-family="'Noto Sans KR', 'Apple SD Gothic Neo', 'Malgun Gothic', sans-serif" font-size="56" font-weight="800" fill="#f8fafc" letter-spacing="6">욕바지</text>
  </g>
  <text x="300" y="568" text-anchor="middle" font-family="'Inter', 'Helvetica Neue', sans-serif" font-size="16" font-weight="500" fill="#64748b" letter-spacing="8">YOKBAJI</text>
</svg>